<svg xmlns="http://www.w3.org/2000/svg" xmlns:xlink="http://www.w3.org/1999/xlink" width="500" zoomAndPan="magnify" viewBox="0 0 375 374.999991" height="500" preserveAspectRatio="xMidYMid meet" version="1.0"><defs><clipPath id="f21ff14942"><path d="M 0 24 L 374 24 L 374 352.21875 L 0 352.21875 Z M 0 24 " clip-rule="nonzero"/></clipPath></defs><g clip-path="url(#f21ff14942)"><path fill="#000000" d="M 358.503906 173.851562 C 359.6875 170.675781 360.945312 167.507812 361.652344 164.175781 C 365.683594 147.644531 361.320312 129.132812 349.800781 116.515625 C 343.242188 109.117188 334.484375 103.777344 325.007812 101.035156 C 325.445312 88.660156 320.953125 76.226562 312.746094 66.957031 C 306.195312 59.460938 297.332031 54.121094 287.789062 51.390625 C 277.757812 48.6875 267.125 48.832031 256.980469 50.84375 C 251.464844 42.085938 242.957031 35.347656 233.378906 31.496094 C 225.027344 28.144531 215.839844 26.992188 206.902344 27.957031 C 198.398438 28.621094 190.25 31.605469 182.847656 35.742188 C 171.886719 27.101562 157.417969 22.996094 143.5625 24.921875 C 131.410156 26.355469 119.996094 32.484375 111.6875 41.402344 C 109.601562 43.550781 107.910156 46.03125 106.027344 48.351562 C 98.511719 47.238281 90.796875 46.796875 83.269531 48.09375 C 72.355469 49.820312 62.101562 55.417969 54.738281 63.644531 C 48.363281 70.730469 44.203125 79.855469 43.496094 89.398438 C 35.914062 91.640625 29.144531 96.207031 23.816406 101.992188 C 16.703125 109.679688 12.433594 119.835938 11.421875 130.222656 C 10.980469 134.496094 11.488281 138.777344 11.984375 143.023438 C 4.617188 151.476562 0.578125 162.597656 0.351562 173.777344 C 0.046875 186.507812 4.027344 199.394531 11.871094 209.480469 C 16.441406 215.476562 22.292969 220.4375 28.785156 224.246094 C 37.929688 229.496094 48.351562 232.296875 58.835938 232.980469 C 68.449219 233.355469 78.074219 233.117188 87.691406 233.277344 C 90.011719 242.738281 95.105469 251.515625 102.308594 258.09375 C 109.355469 264.628906 118.414062 268.859375 127.871094 270.464844 C 135.019531 271.613281 142.378906 271.542969 149.484375 270.101562 C 159.726562 268.171875 169.347656 263.789062 178.175781 258.34375 C 177.074219 271.765625 182.144531 285.4375 191.511719 295.070312 C 197.695312 301.683594 205.910156 306.039062 214.453125 308.785156 C 221.789062 322.257812 230.710938 334.804688 238.59375 347.960938 C 239.804688 350.132812 241.945312 351.898438 244.519531 351.988281 C 250.808594 352.046875 257.097656 351.988281 263.386719 352.003906 C 267.367188 351.910156 271.003906 348.488281 271.136719 344.476562 C 271.398438 340.484375 268.859375 337.117188 267.207031 333.695312 C 263.679688 326.703125 259.988281 319.457031 259.363281 311.519531 C 264.480469 311.160156 269.613281 310.804688 274.648438 309.785156 C 290.101562 306.933594 304.917969 299.964844 316.472656 289.242188 C 326.015625 280.335938 333.566406 269 337.035156 256.347656 C 342.625 255.207031 347.988281 252.980469 352.738281 249.824219 C 364.929688 241.835938 372.617188 227.792969 373.683594 213.355469 C 375.019531 198.75 369.054688 183.929688 358.503906 173.851562 Z M 358.503906 173.851562 " fill-opacity="1" fill-rule="nonzero"/><path fill="#000000" d="M 143.5625 24.921875 C 157.417969 22.996094 171.886719 27.101562 182.847656 35.742188 C 190.25 31.605469 198.398438 28.621094 206.902344 27.957031 C 215.839844 26.992188 225.027344 28.144531 233.378906 31.496094 C 242.957031 35.347656 251.464844 42.085938 256.980469 50.84375 C 267.121094 48.832031 277.757812 48.6875 287.789062 51.390625 C 297.332031 54.121094 306.195312 59.460938 312.746094 66.957031 C 320.953125 76.226562 325.445312 88.660156 325.007812 101.035156 C 334.484375 103.777344 343.242188 109.117188 349.800781 116.515625 C 361.320312 129.132812 365.683594 147.644531 361.652344 164.175781 C 360.945312 167.507812 359.6875 170.675781 358.503906 173.851562 C 369.054688 183.929688 375.019531 198.75 373.683594 213.355469 C 372.617188 227.792969 364.929688 241.835938 352.738281 249.824219 C 347.988281 252.980469 342.625 255.207031 337.035156 256.347656 C 333.566406 269 326.015625 280.335938 316.472656 289.242188 C 304.917969 299.964844 290.101562 306.933594 274.648438 309.785156 C 269.613281 310.804688 264.480469 311.160156 259.363281 311.519531 C 259.988281 319.457031 263.679688 326.703125 267.207031 333.695312 C 268.859375 337.117188 271.398438 340.484375 271.136719 344.476562 C 271.003906 348.488281 267.367188 351.910156 263.386719 352.003906 C 257.097656 351.988281 250.808594 352.046875 244.519531 351.988281 C 241.945312 351.898438 239.804688 350.132812 238.59375 347.960938 C 230.710938 334.804688 221.789062 322.257812 214.453125 308.785156 C 205.910156 306.039062 197.695312 301.683594 191.511719 295.070312 C 182.144531 285.4375 177.074219 271.765625 178.175781 258.34375 C 169.347656 263.789062 159.726562 268.171875 149.484375 270.101562 C 142.378906 271.542969 135.019531 271.613281 127.871094 270.464844 C 118.414062 268.859375 109.355469 264.628906 102.308594 258.09375 C 95.105469 251.515625 90.011719 242.738281 87.691406 233.277344 C 78.074219 233.117188 68.449219 233.355469 58.835938 232.980469 C 48.351562 232.296875 37.929688 229.496094 28.785156 224.246094 C 22.292969 220.4375 16.441406 215.476562 11.871094 209.480469 C 4.027344 199.394531 0.046875 186.507812 0.351562 173.777344 C 0.578125 162.597656 4.617188 151.476562 11.984375 143.023438 C 11.488281 138.777344 10.980469 134.496094 11.421875 130.222656 C 12.433594 119.835938 16.703125 109.679688 23.816406 101.992188 C 29.144531 96.207031 35.914062 91.640625 43.496094 89.398438 C 44.203125 79.855469 48.363281 70.730469 54.738281 63.644531 C 62.101562 55.417969 72.355469 49.820312 83.269531 48.09375 C 90.796875 46.796875 98.511719 47.238281 106.027344 48.351562 C 107.910156 46.03125 109.601562 43.550781 111.6875 41.402344 C 119.996094 32.484375 131.410156 26.355469 143.5625 24.921875 Z M 136.996094 35.589844 C 125.074219 39.402344 115.074219 48.722656 110.402344 60.335938 C 108.800781 64.347656 107.785156 68.828125 108.789062 73.121094 C 109.582031 76.652344 111.957031 79.796875 115.179688 81.464844 C 119.167969 83.652344 124.261719 83.441406 128.164062 81.152344 C 131.75 79.003906 134.164062 75.441406 136.269531 71.925781 C 137.183594 70.445312 137.921875 68.621094 139.628906 67.890625 C 141.605469 66.902344 144.273438 67.574219 145.382812 69.535156 C 146.585938 71.425781 145.9375 73.804688 144.867188 75.597656 C 141.648438 81.320312 137.3125 86.730469 131.382812 89.796875 C 125.757812 92.757812 118.824219 93.050781 112.972656 90.585938 C 106.058594 87.75 100.878906 81.144531 99.710938 73.765625 C 98.628906 68.125 99.84375 62.339844 101.957031 57.078125 C 97.582031 56.519531 93.15625 56.164062 88.753906 56.570312 C 80.980469 57.160156 73.347656 59.929688 67.097656 64.605469 C 59.675781 70.265625 54.273438 78.75 52.859375 88.027344 C 56.191406 88.265625 59.574219 88.367188 62.800781 89.34375 C 69.222656 90.996094 75.171875 94.980469 78.496094 100.804688 C 81.285156 105.414062 81.8125 111.125 80.667969 116.320312 C 79.042969 122.773438 75.117188 128.628906 69.800781 132.621094 C 67.335938 134.460938 63.175781 132.855469 63.003906 129.671875 C 62.476562 126.949219 64.753906 125.054688 66.425781 123.3125 C 69.71875 120.027344 72.242188 115.644531 72.269531 110.894531 C 72.398438 107.175781 70.238281 103.746094 67.421875 101.488281 C 63.394531 98.261719 58.082031 97.039062 53.007812 97.191406 C 45.089844 97.394531 37.492188 101.09375 31.980469 106.691406 C 25.214844 113.21875 20.871094 122.3125 20.480469 131.742188 C 20.195312 137.503906 20.875 143.53125 23.765625 148.625 C 27.21875 154.855469 33.738281 159.175781 40.769531 160.164062 C 43.261719 160.664062 45.96875 160.40625 48.253906 161.6875 C 50.820312 163.007812 52.453125 165.9375 52.238281 168.8125 C 52.050781 172.929688 49.488281 176.519531 49.507812 180.671875 C 49.476562 186.261719 51.457031 192.535156 56.503906 195.546875 C 60.289062 197.929688 65.027344 197.511719 69.171875 196.4375 C 71.085938 195.964844 73.269531 195.046875 75.125 196.222656 C 77.09375 197.214844 77.644531 199.769531 77.011719 201.742188 C 76.386719 203.335938 74.859375 204.351562 73.25 204.773438 C 69.890625 205.683594 66.441406 206.441406 62.9375 206.378906 C 57.015625 206.445312 50.960938 204.0625 47.054688 199.535156 C 42.457031 194.445312 40.511719 187.441406 40.703125 180.683594 C 40.605469 176.929688 41.785156 173.328125 42.855469 169.777344 C 36.984375 168.996094 31.039062 167.492188 26.113281 164.078125 C 21.96875 161.328125 18.84375 157.417969 15.988281 153.417969 C 10.65625 160.625 8.832031 169.914062 9.480469 178.726562 C 10.058594 187.671875 13.324219 196.4375 18.824219 203.527344 C 23.96875 210.539062 31.234375 215.839844 39.214844 219.195312 C 46.984375 222.570312 55.480469 224.03125 63.921875 223.933594 C 71.425781 223.84375 78.9375 224.042969 86.433594 223.804688 C 86.320312 215.582031 88.144531 207.277344 92.203125 200.078125 C 96.960938 191.34375 104.496094 184.226562 113.234375 179.539062 C 122.507812 174.519531 133.066406 172.152344 143.566406 171.910156 C 155.238281 171.871094 166.910156 171.90625 178.582031 171.878906 C 178.65625 159.625 178.535156 147.367188 178.644531 135.109375 C 176.957031 136.054688 175.320312 137.09375 173.558594 137.902344 C 167.554688 140.652344 160.570312 141.183594 154.21875 139.359375 C 146.492188 137.035156 139.910156 130.972656 137.242188 123.320312 C 135.011719 116.679688 135.140625 109.085938 138.402344 102.800781 C 141.058594 97.304688 145.796875 92.957031 151.355469 90.492188 C 157.835938 87.714844 165.402344 87.785156 171.910156 90.453125 C 174.21875 91.363281 176.324219 92.6875 178.558594 93.765625 C 178.570312 77.140625 178.71875 60.507812 178.535156 43.882812 C 173.292969 39.753906 167.285156 36.46875 160.777344 34.859375 C 152.984375 32.886719 144.652344 33.132812 136.996094 35.589844 Z M 187.640625 43.675781 C 187.414062 55.035156 187.613281 66.402344 187.5625 77.769531 C 187.777344 83.210938 187.691406 88.660156 187.703125 94.109375 C 187.65625 96.28125 187.503906 98.664062 186 100.382812 C 183.964844 102.984375 180.339844 103.613281 177.242188 103.066406 C 174.472656 102.601562 172.289062 100.722656 169.824219 99.53125 C 166.398438 97.695312 162.367188 96.949219 158.539062 97.765625 C 150.941406 99.042969 144.652344 106.097656 144.695312 113.878906 C 144.355469 121.105469 149.207031 128.332031 156.164062 130.484375 C 162.101562 132.417969 168.792969 130.914062 173.730469 127.21875 C 176.320312 125.183594 179.671875 123.972656 182.976562 124.554688 C 185.523438 125.148438 187.5 127.59375 187.585938 130.207031 C 187.894531 134.003906 187.511719 137.800781 187.558594 141.601562 C 187.585938 151.652344 187.511719 161.707031 187.621094 171.757812 C 196.035156 171.941406 204.457031 171.816406 212.867188 171.75 C 223.765625 171.808594 234.660156 171.84375 245.5625 171.835938 C 249.265625 171.558594 252.464844 175.09375 252.25 178.714844 C 252.40625 182.117188 250.03125 184.738281 248.210938 187.335938 C 245.65625 191.070312 244.84375 195.898438 245.855469 200.296875 C 247.210938 206.71875 252.746094 211.878906 259.195312 212.984375 C 266.476562 214.441406 274.292969 210.429688 277.496094 203.769531 C 279.910156 198.726562 279.507812 192.480469 276.613281 187.710938 C 274.929688 184.707031 272.101562 181.957031 272.363281 178.25 C 272.277344 174.703125 275.578125 171.507812 279.136719 171.832031 C 297.625 171.886719 316.113281 171.714844 334.597656 171.75 C 339.519531 171.769531 344.4375 171.960938 349.355469 171.742188 C 357.742188 155.59375 354.714844 134.378906 342.03125 121.304688 C 336.296875 115.347656 328.855469 111.050781 320.742188 109.328125 C 318.359375 111.925781 315.949219 114.503906 313.476562 117.015625 C 311.90625 118.574219 310.410156 120.261719 308.519531 121.433594 C 305.953125 123.042969 302.054688 120.929688 302.164062 117.855469 C 302 115.792969 303.433594 114.144531 304.84375 112.839844 C 307.75 110.132812 310.328125 107.101562 313.089844 104.246094 C 314.0625 103.183594 315.214844 102.253906 315.988281 101.015625 C 316.117188 93.78125 314.546875 86.4375 310.972656 80.105469 C 306.378906 71.738281 298.753906 65.105469 289.855469 61.65625 C 281.335938 58.296875 271.886719 57.886719 262.890625 59.136719 C 259.664062 59.527344 256.351562 60.898438 253.125 59.8125 C 250.324219 58.890625 249.625 55.679688 247.957031 53.585938 C 240.273438 42.8125 226.941406 36.84375 213.878906 36.671875 C 204.753906 36.636719 195.371094 38.679688 187.640625 43.675781 Z M 187.765625 180.839844 C 187.410156 190.835938 187.578125 200.84375 187.621094 210.847656 C 190.980469 209.09375 194.019531 206.695312 197.691406 205.582031 C 204.882812 203.007812 213.160156 204.046875 219.59375 208.113281 C 226.183594 212.058594 230.570312 219.238281 231.488281 226.820312 C 231.976562 231.6875 231.445312 236.746094 229.3125 241.195312 C 226.378906 247.316406 221.285156 252.605469 214.789062 254.875 C 207.851562 257.464844 199.863281 256.609375 193.402344 253.105469 C 192.015625 252.339844 190.585938 251.648438 189.09375 251.136719 C 186.988281 256.261719 186.671875 261.992188 187.445312 267.433594 C 188.222656 273.3125 190.46875 278.964844 193.867188 283.824219 C 198.816406 291.265625 206.613281 296.496094 215.035156 299.242188 C 224.167969 302.457031 233.980469 302.582031 243.550781 302.539062 C 247.136719 302.484375 250.734375 302.699219 254.316406 302.414062 C 256.417969 299.085938 258.246094 295.570312 259.828125 291.96875 C 262.648438 285.496094 263.644531 278.238281 262.441406 271.269531 C 262.214844 268.746094 261.097656 265.664062 263.074219 263.566406 C 265.242188 261.066406 269.953125 262.121094 270.640625 265.425781 C 271.792969 270.894531 272.203125 276.574219 271.546875 282.136719 C 270.839844 289.222656 268.171875 295.929688 264.753906 302.113281 C 277.480469 300.847656 290.117188 297.023438 300.875 289.996094 C 312.867188 282.128906 322.851562 270.597656 327.332031 256.832031 C 320.761719 256.109375 314.183594 255.109375 307.945312 252.863281 C 300.066406 250.125 292.5 246.546875 285.273438 242.390625 C 282.996094 241.046875 280.542969 239.960938 278.460938 238.3125 C 276.144531 236.414062 276.589844 232.105469 279.40625 230.902344 C 281.652344 229.777344 284.003906 231.226562 285.925781 232.351562 C 297.390625 239.210938 309.695312 245.367188 323.078125 247.203125 C 330.554688 248.316406 338.488281 247.414062 345.1875 243.757812 C 353.53125 239.382812 359.761719 231.484375 362.703125 222.59375 C 367.457031 208.542969 363.933594 191.808594 353.164062 181.4375 C 352.613281 180.789062 351.734375 180.753906 350.953125 180.765625 C 328.234375 180.9375 305.511719 180.695312 282.792969 180.808594 C 285.5625 184.882812 287.664062 189.539062 287.925781 194.515625 C 288.542969 202.582031 285.164062 210.894531 278.914062 216.066406 C 274.328125 219.945312 268.40625 222.347656 262.351562 222.21875 C 255.347656 222.339844 248.414062 219.375 243.613281 214.285156 C 237.660156 208.375 235.253906 199.300781 237.191406 191.175781 C 237.902344 187.367188 239.9375 184.035156 242.054688 180.855469 C 223.957031 180.800781 205.863281 180.769531 187.765625 180.839844 Z M 121.675781 185.519531 C 112.355469 189.398438 104.152344 196.371094 99.5625 205.441406 C 92.65625 219.101562 94.914062 236.894531 105.285156 248.210938 C 111.109375 254.902344 119.21875 259.433594 127.890625 261.199219 C 138.644531 263.535156 149.925781 261.609375 159.996094 257.480469 C 166.882812 254.769531 173.191406 250.800781 179.164062 246.46875 C 181.1875 245.023438 183.003906 243.144531 185.449219 242.410156 C 188.101562 241.585938 191.160156 241.507812 193.601562 242.996094 C 197.078125 245.070312 200.785156 247.175781 204.953125 247.277344 C 209.878906 247.605469 214.863281 245.574219 218.160156 241.898438 C 223.027344 236.75 224.191406 228.480469 220.820312 222.230469 C 217.207031 214.867188 207.660156 211.191406 200.066406 214.410156 C 196.210938 215.566406 193.707031 219.402344 189.605469 219.886719 C 187.25 220.21875 184.636719 220.234375 182.601562 218.851562 C 180.101562 217.265625 178.53125 214.363281 178.617188 211.398438 C 178.550781 201.265625 178.652344 191.132812 178.640625 181.003906 C 168.117188 180.8125 157.585938 181.0625 147.058594 180.980469 C 138.414062 180.867188 129.671875 182.121094 121.675781 185.519531 Z M 225.71875 310.742188 C 232.5625 321.4375 239.324219 332.183594 246.132812 342.898438 C 251.367188 342.984375 256.601562 342.96875 261.839844 342.929688 C 256.542969 333.09375 251.242188 322.890625 250.105469 311.601562 C 241.976562 311.453125 233.808594 311.730469 225.71875 310.742188 Z M 225.71875 310.742188 " fill-opacity="1" fill-rule="nonzero"/></g><path fill="#000000" d="M 214.527344 56.113281 C 216.78125 55.011719 219.722656 56.332031 220.554688 58.664062 C 222.082031 65.421875 218.3125 72.671875 221.3125 79.222656 C 222.546875 81.6875 225.269531 82.554688 227.722656 83.261719 C 230.886719 84.222656 231.527344 88.933594 228.972656 90.890625 C 227.203125 92.476562 224.601562 92.21875 222.554688 91.390625 C 218.535156 90.058594 215.191406 87.050781 213.28125 83.296875 C 210.746094 78.558594 210.691406 72.972656 211.316406 67.769531 C 211.667969 65.199219 211.820312 62.613281 211.988281 60.023438 C 212.03125 58.386719 213.003906 56.777344 214.527344 56.113281 Z M 214.527344 56.113281 " fill-opacity="1" fill-rule="nonzero"/><path fill="#000000" d="M 280.84375 87.84375 C 282.753906 87.382812 284.96875 87.933594 286.09375 89.636719 C 287.835938 91.996094 286.371094 95.769531 283.527344 96.417969 C 280.042969 97.226562 277.171875 99.546875 275.074219 102.367188 C 269.769531 109.09375 268.453125 117.800781 264.976562 125.4375 C 262.191406 131.828125 258.082031 137.972656 251.996094 141.628906 C 246.578125 145.023438 239.558594 145.320312 233.660156 143.046875 C 226.792969 140.519531 221.5 135.179688 216.851562 129.71875 C 215.515625 128.035156 213.757812 126.160156 214.238281 123.820312 C 214.527344 121.289062 217.328125 119.652344 219.71875 120.300781 C 221.78125 120.820312 222.964844 122.746094 224.28125 124.257812 C 227.507812 128.285156 231.246094 132.15625 236.039062 134.28125 C 239.878906 136.027344 244.675781 135.863281 248.136719 133.324219 C 253.773438 129.332031 256.722656 122.753906 258.894531 116.414062 C 261.199219 109.453125 263.605469 102.328125 268.222656 96.503906 C 271.339844 92.375 275.695312 88.914062 280.84375 87.84375 Z M 280.84375 87.84375 " fill-opacity="1" fill-rule="nonzero"/><path fill="#000000" d="M 105.214844 130.945312 C 107.4375 129.878906 109.863281 131.132812 111.695312 132.421875 C 116.375 135.714844 118.707031 141.371094 119.464844 146.871094 C 119.976562 149.234375 119.585938 152.09375 117.375 153.46875 C 114.890625 155.191406 111.296875 153.613281 110.621094 150.746094 C 110 147.742188 110 144.457031 108.238281 141.816406 C 106.976562 139.910156 104.464844 139.375 103.238281 137.441406 C 101.9375 135.253906 102.757812 131.929688 105.214844 130.945312 Z M 105.214844 130.945312 " fill-opacity="1" fill-rule="nonzero"/><path fill="#000000" d="M 330.3125 132.300781 C 333.539062 130.984375 336.980469 134.378906 336.207031 137.628906 C 335.109375 142.007812 332.535156 146.042969 329.050781 148.917969 C 324.113281 153.046875 317.226562 154.617188 310.957031 153.210938 C 304.546875 151.859375 299.121094 147.992188 293.148438 145.527344 C 289.316406 143.945312 284.992188 143.898438 281.023438 144.941406 C 278.894531 145.449219 276.503906 146.644531 274.425781 145.347656 C 271.484375 143.648438 272.066406 138.851562 274.964844 137.417969 C 281.351562 134.515625 288.855469 134.304688 295.4375 136.714844 C 301.277344 138.59375 306.179688 142.636719 312.152344 144.15625 C 316.976562 145.324219 322.816406 143.878906 325.503906 139.433594 C 327.097656 137.066406 327.148438 133.285156 330.3125 132.300781 Z M 330.3125 132.300781 " fill-opacity="1" fill-rule="nonzero"/><path fill="#000000" d="M 303.128906 203.171875 C 305.125 202.34375 307.628906 203.238281 308.550781 205.21875 C 309.996094 208.207031 311.746094 211.191406 314.535156 213.125 C 318.460938 215.917969 324.152344 216.121094 328.132812 213.320312 C 329.769531 212.148438 331.886719 211.007812 333.875 212.097656 C 337.003906 213.523438 337.238281 218.222656 334.535156 220.214844 C 328.011719 225.28125 318.398438 225.933594 311.199219 221.902344 C 307.605469 219.84375 304.78125 216.683594 302.515625 213.265625 C 301.445312 211.636719 300.445312 209.871094 300.207031 207.90625 C 299.945312 205.898438 301.238281 203.859375 303.128906 203.171875 Z M 303.128906 203.171875 " fill-opacity="1" fill-rule="nonzero"/><path fill="#000000" d="M 125.988281 207.121094 C 127.746094 206.273438 130.078125 206.804688 131.175781 208.449219 C 132.40625 210.292969 133.0625 212.4375 134.121094 214.378906 C 137.742188 221.539062 142.976562 228.230469 150.230469 231.960938 C 153.167969 233.46875 153.097656 238.226562 150.253906 239.796875 C 148.300781 241.039062 145.882812 240.21875 144.109375 239.0625 C 135.535156 233.835938 129.261719 225.523438 125.066406 216.523438 C 124.203125 214.601562 123.125 212.613281 123.386719 210.441406 C 123.519531 208.945312 124.648438 207.699219 125.988281 207.121094 Z M 125.988281 207.121094 " fill-opacity="1" fill-rule="nonzero"/><path fill="#e53935" d="M 136.996094 35.589844 C 144.652344 33.132812 152.984375 32.886719 160.777344 34.859375 C 167.285156 36.46875 173.292969 39.753906 178.535156 43.882812 C 178.71875 60.507812 178.570312 77.140625 178.558594 93.765625 C 176.324219 92.6875 174.21875 91.363281 171.910156 90.453125 C 165.402344 87.785156 157.835938 87.714844 151.355469 90.492188 C 145.796875 92.957031 141.058594 97.304688 138.402344 102.800781 C 135.140625 109.085938 135.011719 116.679688 137.242188 123.320312 C 139.910156 130.972656 146.492188 137.035156 154.21875 139.359375 C 160.570312 141.183594 167.554688 140.652344 173.558594 137.902344 C 175.320312 137.09375 176.957031 136.054688 178.644531 135.109375 C 178.535156 147.367188 178.65625 159.625 178.582031 171.878906 C 166.910156 171.90625 155.238281 171.871094 143.566406 171.910156 C 133.066406 172.152344 122.507812 174.519531 113.234375 179.539062 C 104.496094 184.226562 96.960938 191.34375 92.203125 200.078125 C 88.144531 207.277344 86.320312 215.582031 86.433594 223.804688 C 78.9375 224.042969 71.425781 223.84375 63.921875 223.933594 C 55.480469 224.03125 46.984375 222.570312 39.214844 219.195312 C 31.234375 215.839844 23.96875 210.539062 18.824219 203.527344 C 13.324219 196.4375 10.058594 187.671875 9.480469 178.726562 C 8.832031 169.914062 10.65625 160.625 15.988281 153.417969 C 18.84375 157.417969 21.96875 161.328125 26.113281 164.078125 C 31.039062 167.492188 36.984375 168.996094 42.855469 169.777344 C 41.785156 173.328125 40.605469 176.929688 40.703125 180.683594 C 40.511719 187.441406 42.457031 194.445312 47.054688 199.535156 C 50.960938 204.0625 57.015625 206.445312 62.9375 206.378906 C 66.441406 206.441406 69.890625 205.683594 73.25 204.773438 C 74.859375 204.351562 76.386719 203.335938 77.011719 201.742188 C 77.644531 199.769531 77.09375 197.214844 75.125 196.222656 C 73.269531 195.046875 71.085938 195.964844 69.171875 196.4375 C 65.027344 197.511719 60.289062 197.929688 56.503906 195.546875 C 51.457031 192.535156 49.476562 186.261719 49.507812 180.671875 C 49.488281 176.519531 52.050781 172.929688 52.238281 168.8125 C 52.453125 165.9375 50.820312 163.007812 48.253906 161.6875 C 45.96875 160.40625 43.261719 160.664062 40.769531 160.164062 C 33.738281 159.175781 27.21875 154.855469 23.765625 148.625 C 20.875 143.53125 20.195312 137.503906 20.480469 131.742188 C 20.871094 122.3125 25.214844 113.21875 31.980469 106.691406 C 37.492188 101.09375 45.089844 97.394531 53.007812 97.191406 C 58.082031 97.039062 63.394531 98.261719 67.421875 101.488281 C 70.238281 103.746094 72.398438 107.175781 72.269531 110.894531 C 72.242188 115.644531 69.71875 120.027344 66.425781 123.3125 C 64.753906 125.054688 62.476562 126.949219 63.003906 129.671875 C 63.175781 132.855469 67.335938 134.460938 69.800781 132.621094 C 75.117188 128.628906 79.042969 122.773438 80.667969 116.320312 C 81.8125 111.125 81.285156 105.414062 78.496094 100.804688 C 75.171875 94.980469 69.222656 90.996094 62.800781 89.34375 C 59.574219 88.367188 56.191406 88.265625 52.859375 88.027344 C 54.273438 78.75 59.675781 70.265625 67.097656 64.605469 C 73.347656 59.929688 80.980469 57.160156 88.753906 56.570312 C 93.15625 56.164062 97.582031 56.519531 101.957031 57.078125 C 99.84375 62.339844 98.628906 68.125 99.710938 73.765625 C 100.878906 81.144531 106.058594 87.75 112.972656 90.585938 C 118.824219 93.050781 125.757812 92.757812 131.382812 89.796875 C 137.3125 86.730469 141.648438 81.320312 144.867188 75.597656 C 145.9375 73.804688 146.585938 71.425781 145.382812 69.535156 C 144.273438 67.574219 141.605469 66.902344 139.628906 67.890625 C 137.921875 68.621094 137.183594 70.445312 136.269531 71.925781 C 134.164062 75.441406 131.75 79.003906 128.164062 81.152344 C 124.261719 83.441406 119.167969 83.652344 115.179688 81.464844 C 111.957031 79.796875 109.582031 76.652344 108.789062 73.121094 C 107.785156 68.828125 108.800781 64.347656 110.402344 60.335938 C 115.074219 48.722656 125.074219 39.402344 136.996094 35.589844 Z M 105.214844 130.945312 C 102.757812 131.929688 101.9375 135.253906 103.238281 137.441406 C 104.464844 139.375 106.976562 139.910156 108.238281 141.816406 C 110 144.457031 110 147.742188 110.621094 150.746094 C 111.296875 153.613281 114.890625 155.191406 117.375 153.46875 C 119.585938 152.09375 119.976562 149.234375 119.464844 146.871094 C 118.707031 141.371094 116.375 135.714844 111.695312 132.421875 C 109.863281 131.132812 107.4375 129.878906 105.214844 130.945312 Z M 105.214844 130.945312 " fill-opacity="1" fill-rule="nonzero"/><path fill="#fbc02d" d="M 187.640625 43.675781 C 195.371094 38.679688 204.753906 36.636719 213.878906 36.671875 C 226.941406 36.84375 240.273438 42.8125 247.957031 53.585938 C 249.625 55.679688 250.324219 58.890625 253.125 59.8125 C 256.351562 60.898438 259.664062 59.527344 262.890625 59.136719 C 271.886719 57.886719 281.335938 58.296875 289.855469 61.65625 C 298.753906 65.105469 306.378906 71.738281 310.972656 80.105469 C 314.546875 86.4375 316.117188 93.78125 315.988281 101.015625 C 315.214844 102.253906 314.0625 103.183594 313.089844 104.246094 C 310.328125 107.101562 307.75 110.132812 304.84375 112.839844 C 303.433594 114.144531 302 115.792969 302.164062 117.855469 C 302.054688 120.929688 305.953125 123.042969 308.519531 121.433594 C 310.410156 120.261719 311.90625 118.574219 313.476562 117.015625 C 315.949219 114.503906 318.359375 111.925781 320.742188 109.328125 C 328.855469 111.050781 336.296875 115.347656 342.03125 121.304688 C 354.714844 134.378906 357.742188 155.59375 349.355469 171.742188 C 344.4375 171.960938 339.519531 171.769531 334.597656 171.75 C 316.113281 171.714844 297.625 171.886719 279.136719 171.832031 C 275.578125 171.507812 272.277344 174.703125 272.363281 178.25 C 272.101562 181.957031 274.929688 184.707031 276.613281 187.710938 C 279.507812 192.480469 279.910156 198.726562 277.496094 203.769531 C 274.292969 210.429688 266.476562 214.441406 259.195312 212.984375 C 252.746094 211.878906 247.210938 206.71875 245.855469 200.296875 C 244.84375 195.898438 245.65625 191.070312 248.210938 187.335938 C 250.03125 184.738281 252.40625 182.117188 252.25 178.714844 C 252.464844 175.09375 249.265625 171.558594 245.5625 171.835938 C 234.660156 171.84375 223.765625 171.808594 212.867188 171.75 C 204.457031 171.816406 196.035156 171.941406 187.621094 171.757812 C 187.511719 161.707031 187.585938 151.652344 187.558594 141.601562 C 187.511719 137.800781 187.894531 134.003906 187.585938 130.207031 C 187.5 127.59375 185.523438 125.148438 182.976562 124.554688 C 179.671875 123.972656 176.320312 125.183594 173.730469 127.21875 C 168.792969 130.914062 162.101562 132.417969 156.164062 130.484375 C 149.207031 128.332031 144.355469 121.105469 144.695312 113.878906 C 144.652344 106.097656 150.941406 99.042969 158.539062 97.765625 C 162.367188 96.949219 166.398438 97.695312 169.824219 99.53125 C 172.289062 100.722656 174.472656 102.601562 177.242188 103.066406 C 180.339844 103.613281 183.964844 102.984375 186 100.382812 C 187.503906 98.664062 187.65625 96.28125 187.703125 94.109375 C 187.691406 88.660156 187.777344 83.210938 187.5625 77.769531 C 187.613281 66.402344 187.414062 55.035156 187.640625 43.675781 Z M 214.527344 56.113281 C 213.003906 56.777344 212.03125 58.386719 211.988281 60.023438 C 211.820312 62.613281 211.667969 65.199219 211.316406 67.769531 C 210.691406 72.972656 210.746094 78.558594 213.28125 83.296875 C 215.191406 87.050781 218.535156 90.058594 222.554688 91.390625 C 224.601562 92.21875 227.203125 92.476562 228.972656 90.890625 C 231.527344 88.933594 230.886719 84.222656 227.722656 83.261719 C 225.269531 82.554688 222.546875 81.6875 221.3125 79.222656 C 218.3125 72.671875 222.082031 65.421875 220.554688 58.664062 C 219.722656 56.332031 216.78125 55.011719 214.527344 56.113281 Z M 280.84375 87.84375 C 275.695312 88.914062 271.339844 92.375 268.222656 96.503906 C 263.605469 102.328125 261.199219 109.453125 258.894531 116.414062 C 256.722656 122.753906 253.773438 129.332031 248.136719 133.324219 C 244.675781 135.863281 239.878906 136.027344 236.039062 134.28125 C 231.246094 132.15625 227.507812 128.285156 224.28125 124.257812 C 222.964844 122.746094 221.78125 120.820312 219.71875 120.300781 C 217.328125 119.652344 214.527344 121.289062 214.238281 123.820312 C 213.757812 126.160156 215.515625 128.035156 216.851562 129.71875 C 221.5 135.179688 226.792969 140.519531 233.660156 143.046875 C 239.558594 145.320312 246.578125 145.023438 251.996094 141.628906 C 258.082031 137.972656 262.191406 131.828125 264.976562 125.4375 C 268.453125 117.800781 269.769531 109.09375 275.074219 102.367188 C 277.171875 99.546875 280.042969 97.226562 283.527344 96.417969 C 286.371094 95.769531 287.835938 91.996094 286.09375 89.636719 C 284.96875 87.933594 282.753906 87.382812 280.84375 87.84375 Z M 330.3125 132.300781 C 327.148438 133.285156 327.097656 137.066406 325.503906 139.433594 C 322.816406 143.878906 316.976562 145.324219 312.152344 144.15625 C 306.179688 142.636719 301.277344 138.59375 295.4375 136.714844 C 288.855469 134.304688 281.351562 134.515625 274.964844 137.417969 C 272.066406 138.851562 271.484375 143.648438 274.425781 145.347656 C 276.503906 146.644531 278.894531 145.449219 281.023438 144.941406 C 284.992188 143.898438 289.316406 143.945312 293.148438 145.527344 C 299.121094 147.992188 304.546875 151.859375 310.957031 153.210938 C 317.226562 154.617188 324.113281 153.046875 329.050781 148.917969 C 332.535156 146.042969 335.109375 142.007812 336.207031 137.628906 C 336.980469 134.378906 333.539062 130.984375 330.3125 132.300781 Z M 330.3125 132.300781 " fill-opacity="1" fill-rule="nonzero"/><path fill="#43a047" d="M 187.765625 180.839844 C 205.863281 180.769531 223.957031 180.800781 242.054688 180.855469 C 239.9375 184.035156 237.902344 187.367188 237.191406 191.175781 C 235.253906 199.300781 237.660156 208.375 243.613281 214.285156 C 248.414062 219.375 255.347656 222.339844 262.351562 222.21875 C 268.40625 222.347656 274.328125 219.945312 278.914062 216.066406 C 285.164062 210.894531 288.542969 202.582031 287.925781 194.515625 C 287.664062 189.539062 285.5625 184.882812 282.792969 180.808594 C 305.511719 180.695312 328.234375 180.9375 350.953125 180.765625 C 351.734375 180.753906 352.613281 180.789062 353.164062 181.4375 C 363.933594 191.808594 367.457031 208.542969 362.703125 222.59375 C 359.761719 231.484375 353.53125 239.382812 345.1875 243.757812 C 338.488281 247.414062 330.554688 248.316406 323.078125 247.203125 C 309.695312 245.367188 297.390625 239.210938 285.925781 232.351562 C 284.003906 231.226562 281.652344 229.777344 279.40625 230.902344 C 276.589844 232.105469 276.144531 236.414062 278.460938 238.3125 C 280.542969 239.960938 282.996094 241.046875 285.273438 242.390625 C 292.5 246.546875 300.066406 250.125 307.945312 252.863281 C 314.183594 255.109375 320.761719 256.109375 327.332031 256.832031 C 322.851562 270.597656 312.867188 282.128906 300.875 289.996094 C 290.117188 297.023438 277.480469 300.847656 264.753906 302.113281 C 268.171875 295.929688 270.839844 289.222656 271.546875 282.136719 C 272.203125 276.574219 271.792969 270.894531 270.640625 265.425781 C 269.953125 262.121094 265.242188 261.066406 263.074219 263.566406 C 261.097656 265.664062 262.214844 268.746094 262.441406 271.269531 C 263.644531 278.238281 262.648438 285.496094 259.828125 291.96875 C 258.246094 295.570312 256.417969 299.085938 254.316406 302.414062 C 250.734375 302.699219 247.136719 302.484375 243.550781 302.539062 C 233.980469 302.582031 224.167969 302.457031 215.035156 299.242188 C 206.613281 296.496094 198.816406 291.265625 193.867188 283.824219 C 190.46875 278.964844 188.222656 273.3125 187.445312 267.433594 C 186.671875 261.992188 186.988281 256.261719 189.09375 251.136719 C 190.585938 251.648438 192.015625 252.339844 193.402344 253.105469 C 199.863281 256.609375 207.851562 257.464844 214.789062 254.875 C 221.285156 252.605469 226.378906 247.316406 229.3125 241.195312 C 231.445312 236.746094 231.976562 231.6875 231.488281 226.820312 C 230.570312 219.238281 226.183594 212.058594 219.59375 208.113281 C 213.160156 204.046875 204.882812 203.007812 197.691406 205.582031 C 194.019531 206.695312 190.980469 209.09375 187.621094 210.847656 C 187.578125 200.84375 187.410156 190.835938 187.765625 180.839844 Z M 303.128906 203.171875 C 301.238281 203.859375 299.945312 205.898438 300.207031 207.90625 C 300.445312 209.871094 301.445312 211.636719 302.515625 213.265625 C 304.78125 216.683594 307.605469 219.84375 311.199219 221.902344 C 318.398438 225.933594 328.011719 225.28125 334.535156 220.214844 C 337.238281 218.222656 337.003906 213.523438 333.875 212.097656 C 331.886719 211.007812 329.769531 212.148438 328.132812 213.320312 C 324.152344 216.121094 318.460938 215.917969 314.535156 213.125 C 311.746094 211.191406 309.996094 208.207031 308.550781 205.21875 C 307.628906 203.238281 305.125 202.34375 303.128906 203.171875 Z M 303.128906 203.171875 " fill-opacity="1" fill-rule="nonzero"/><path fill="#1e88e5" d="M 121.675781 185.519531 C 129.671875 182.121094 138.414062 180.867188 147.058594 180.980469 C 157.585938 181.0625 168.117188 180.8125 178.640625 181.003906 C 178.652344 191.132812 178.550781 201.265625 178.617188 211.398438 C 178.53125 214.363281 180.101562 217.265625 182.601562 218.851562 C 184.636719 220.234375 187.25 220.21875 189.605469 219.886719 C 193.707031 219.402344 196.210938 215.566406 200.066406 214.410156 C 207.660156 211.191406 217.207031 214.867188 220.820312 222.230469 C 224.191406 228.480469 223.027344 236.75 218.160156 241.898438 C 214.863281 245.574219 209.878906 247.605469 204.953125 247.277344 C 200.785156 247.175781 197.078125 245.070312 193.601562 242.996094 C 191.160156 241.507812 188.101562 241.585938 185.449219 242.410156 C 183.003906 243.144531 181.1875 245.023438 179.164062 246.46875 C 173.191406 250.800781 166.882812 254.769531 159.996094 257.480469 C 149.925781 261.609375 138.644531 263.535156 127.890625 261.199219 C 119.21875 259.433594 111.109375 254.902344 105.285156 248.210938 C 94.914062 236.894531 92.65625 219.101562 99.5625 205.441406 C 104.152344 196.371094 112.355469 189.398438 121.675781 185.519531 Z M 125.988281 207.121094 C 124.648438 207.699219 123.519531 208.945312 123.386719 210.441406 C 123.125 212.613281 124.203125 214.601562 125.066406 216.523438 C 129.261719 225.523438 135.535156 233.835938 144.109375 239.0625 C 145.882812 240.21875 148.300781 241.039062 150.253906 239.796875 C 153.097656 238.226562 153.167969 233.46875 150.230469 231.960938 C 142.976562 228.230469 137.742188 221.539062 134.121094 214.378906 C 133.0625 212.4375 132.40625 210.292969 131.175781 208.449219 C 130.078125 206.804688 127.746094 206.273438 125.988281 207.121094 Z M 125.988281 207.121094 " fill-opacity="1" fill-rule="nonzero"/><path fill="#1e88e5" d="M 225.71875 310.742188 C 233.808594 311.730469 241.976562 311.453125 250.105469 311.601562 C 251.242188 322.890625 256.542969 333.09375 261.839844 342.929688 C 256.601562 342.96875 251.367188 342.984375 246.132812 342.898438 C 239.324219 332.183594 232.5625 321.4375 225.71875 310.742188 Z M 225.71875 310.742188 " fill-opacity="1" fill-rule="nonzero"/><path stroke-linecap="butt" transform="matrix(0.75, 0, 0, 0.75, 127.499996, 174.514544)" fill="none" stroke-linejoin="miter" d="M 0.00000516333 2.001442 L 160.000016 2.001442 " stroke="#000000" stroke-width="4" stroke-opacity="1" stroke-miterlimit="4"/></svg>